<svg width="512" height="512" viewBox="0 0 512 512" fill="none" xmlns="http://www.w3.org/2000/svg">
<path d="M178.778 186.941H335.222M178.778 265.294H296.111M374.333 89C389.893 89 404.815 95.1913 415.817 106.212C426.819 117.232 433 132.179 433 147.765V304.471C433 320.056 426.819 335.003 415.817 346.024C404.815 357.044 389.893 363.235 374.333 363.235H276.556L178.778 422V363.235H139.667C124.107 363.235 109.185 357.044 98.1831 346.024C87.1809 335.003 81 320.056 81 304.471V147.765C81 132.179 87.1809 117.232 98.1831 106.212C109.185 95.1913 124.107 89 139.667 89H374.333Z" stroke="black" stroke-width="27" stroke-linecap="round" stroke-linejoin="round"/>
</svg>
